<svg width="32" height="32" viewBox="0 0 32 32" fill="none" xmlns="http://www.w3.org/2000/svg">
<rect width="32" height="32" rx="4" fill="white"/>
<path d="M24.3229 6H19.6753C19.2951 6 18.9992 6.29473 18.9992 6.67375C18.9992 7.05262 19.3161 7.36836 19.6963 7.36836H22.6962L14.6684 15.3682L13.0206 13.7262C12.746 13.4524 12.3235 13.4524 12.0488 13.7262L8.64773 17.1156C8.45763 16.5471 8.37305 15.9367 8.37305 15.3261C8.37305 12.1051 11.0137 9.47352 14.246 9.47352C15.4502 9.47352 16.5909 9.83139 17.5205 10.463L18.4923 9.4945C17.2881 8.63132 15.8305 8.10501 14.2461 8.10501C10.2533 8.10501 7 11.347 7 15.326C6.99985 19.3052 10.2321 22.5262 14.2249 22.5262C15.9784 22.5262 17.5839 21.8946 18.8303 20.8632L23.7737 25.7894C23.9004 25.9157 24.0905 26 24.2596 26C24.4286 26 24.6187 25.9369 24.7454 25.7894C25.0201 25.5157 25.0201 25.0947 24.7454 24.8209L19.802 19.9157C20.8372 18.6737 21.4709 17.0526 21.4709 15.3263C21.4709 14.5053 21.3229 13.7053 21.0694 12.9685L19.9709 14.0633C20.0553 14.4633 20.1188 14.8843 20.1188 15.3053C20.1188 18.5263 17.4781 21.1579 14.2459 21.1579C12.1544 21.1579 10.2954 20.0421 9.26028 18.4C9.28135 18.379 9.30257 18.379 9.32365 18.3579L12.5136 15.179L14.1614 16.8211C14.436 17.0948 14.8585 17.0948 15.1332 16.8211L23.6468 8.33703V11.3265C23.6468 11.7053 23.9426 12.0002 24.3229 12.0002C24.7031 12.0002 24.999 11.7055 24.999 11.3265V6.69495C25.0201 6.29477 24.7031 6.00007 24.3229 6.00007L24.3229 6Z" fill="#848DF9"/>
</svg>
