<svg width="15" height="15" viewBox="0 0 15 15" fill="none" xmlns="http://www.w3.org/2000/svg">
<path fill-rule="evenodd" clip-rule="evenodd" d="M8.26099 9.01053H12.7887C12.961 9.01209 13.1317 8.97764 13.2891 8.90953C13.4465 8.84143 13.587 8.74125 13.7008 8.61583C13.8147 8.49041 13.8994 8.34268 13.9491 8.1827C13.9987 8.02272 14.0123 7.85424 13.9888 7.68873C13.9644 7.3814 13.8193 7.09487 13.5832 6.88826C13.3472 6.68165 13.0384 6.57074 12.7205 6.57842H12.5023C12.642 6.575 12.7796 6.54492 12.9073 6.48992C13.035 6.43491 13.1503 6.35606 13.2466 6.25785C13.3428 6.15965 13.4182 6.04403 13.4683 5.9176C13.5184 5.79116 13.5424 5.65639 13.5387 5.52099C13.5337 5.25408 13.4285 4.99809 13.2427 4.801C13.0569 4.60391 12.8034 4.47924 12.5296 4.45033C12.66 4.35117 12.7657 4.22483 12.8389 4.08067C12.9121 3.93652 12.9508 3.77825 12.9523 3.6176C12.9516 3.36966 12.8633 3.12944 12.702 2.93701C12.5406 2.74458 12.3161 2.61157 12.0659 2.56016C12.1975 2.33583 12.2411 2.07297 12.1886 1.81996C12.1163 1.57826 11.9632 1.36666 11.7534 1.21835C11.5436 1.07004 11.289 0.993401 11.0294 1.00044H7.90641C7.49728 1.00044 7.08952 1.05067 6.69266 1.14584L4.75612 1.76709H2.16498C0.801217 1.76709 0.433002 7.90022 2.16498 7.90022C2.41481 7.88688 2.66521 7.88688 2.91505 7.90022C2.98323 7.90022 3.11961 8.15136 3.46055 8.50825C3.96514 9.03696 4.52428 9.71108 4.91977 10.0812C5.88781 10.9142 6.6758 11.9251 7.23817 13.0552C7.34648 13.3046 7.49366 13.5364 7.67457 13.7426C7.90171 13.9277 8.19477 14.019 8.49066 13.9967C8.78654 13.9745 9.06158 13.8405 9.25653 13.6236C9.39786 13.4755 9.51305 13.3058 9.59747 13.1213C9.65265 12.9937 9.69379 12.8608 9.72021 12.7248C9.7568 12.3521 9.72447 11.9761 9.62475 11.6145C9.53747 11.2338 9.41337 10.8624 9.25653 10.5042C9.00015 10.0376 8.69739 9.59476 8.35645 9.18236C8.31437 9.15723 8.2811 9.12038 8.26099 9.07662" fill="#808080"/>
<path d="M8.26099 9.01053H12.7887C12.961 9.01209 13.1317 8.97764 13.2891 8.90953C13.4465 8.84143 13.587 8.74125 13.7008 8.61583C13.8147 8.49041 13.8994 8.34268 13.9491 8.1827C13.9987 8.02272 14.0123 7.85424 13.9888 7.68873C13.9644 7.3814 13.8193 7.09487 13.5832 6.88826C13.3472 6.68165 13.0384 6.57074 12.7205 6.57842H12.5023C12.642 6.575 12.7796 6.54492 12.9073 6.48992C13.035 6.43491 13.1503 6.35606 13.2466 6.25785C13.3428 6.15965 13.4182 6.04403 13.4683 5.9176C13.5184 5.79116 13.5424 5.65639 13.5387 5.52099C13.5337 5.25408 13.4285 4.99809 13.2427 4.801C13.0569 4.60391 12.8034 4.47924 12.5296 4.45033C12.66 4.35117 12.7657 4.22483 12.8389 4.08067C12.9121 3.93652 12.9508 3.77825 12.9523 3.6176C12.9516 3.36966 12.8633 3.12944 12.702 2.93701C12.5406 2.74458 12.3161 2.61157 12.0659 2.56016C12.1975 2.33583 12.2411 2.07297 12.1886 1.81996C12.1163 1.57826 11.9632 1.36666 11.7534 1.21835C11.5436 1.07004 11.289 0.993401 11.0294 1.00044H7.90641C7.49728 1.00044 7.08952 1.05067 6.69266 1.14584L4.75612 1.76709H2.16498C0.801217 1.76709 0.433002 7.90022 2.16498 7.90022C2.41481 7.88688 2.66521 7.88688 2.91505 7.90022C2.98323 7.90022 3.11961 8.15136 3.46055 8.50825C3.96514 9.03696 4.52428 9.71108 4.91977 10.0812C5.88781 10.9142 6.6758 11.9251 7.23817 13.0552C7.34648 13.3046 7.49366 13.5364 7.67457 13.7426C7.90171 13.9277 8.19477 14.019 8.49066 13.9967C8.78654 13.9745 9.06158 13.8405 9.25653 13.6236C9.39786 13.4755 9.51305 13.3058 9.59747 13.1213C9.65265 12.9937 9.69379 12.8608 9.72021 12.7248C9.7568 12.3521 9.72447 11.9761 9.62475 11.6145C9.53747 11.2338 9.41337 10.8624 9.25653 10.5042C9.00015 10.0376 8.69739 9.59476 8.35645 9.18236C8.31437 9.15723 8.2811 9.12038 8.26099 9.07662" stroke="#808080" stroke-linecap="round" stroke-linejoin="round"/>
</svg>
