<svg width="28" height="28" viewBox="0 0 28 28" fill="none" xmlns="http://www.w3.org/2000/svg">
<rect width="28" height="28" rx="6" fill="white"/>
<path d="M13.1605 5.29732C13.5545 4.68838 14.4455 4.68838 14.8395 5.29732L15.7217 6.66053C15.9789 7.05794 16.4795 7.22058 16.9211 7.05024L18.4361 6.46591C19.1128 6.2049 19.8336 6.72859 19.7945 7.45285L19.7069 9.07425C19.6814 9.54692 19.9908 9.97274 20.4482 10.0945L22.0173 10.5123C22.7182 10.6989 22.9935 11.5462 22.5362 12.1092L21.5123 13.3694C21.2138 13.7368 21.2138 14.2632 21.5123 14.6306L22.5362 15.8908C22.9935 16.4538 22.7182 17.3011 22.0173 17.4877L20.4482 17.9055C19.9908 18.0273 19.6814 18.4531 19.7069 18.9257L19.7945 20.5471C19.8336 21.2714 19.1128 21.7951 18.4361 21.5341L16.9211 20.9498C16.4795 20.7794 15.9789 20.9421 15.7217 21.3395L14.8395 22.7027C14.4455 23.3116 13.5545 23.3116 13.1605 22.7027L12.2783 21.3395C12.0211 20.9421 11.5205 20.7794 11.0789 20.9498L9.56389 21.5341C8.88716 21.7951 8.16637 21.2714 8.20549 20.5471L8.29306 18.9257C8.31859 18.4531 8.00922 18.0273 7.55179 17.9055L5.98269 17.4877C5.28178 17.3011 5.00646 16.4538 5.46383 15.8908L6.48771 14.6306C6.78619 14.2632 6.78619 13.7368 6.48771 13.3694L5.46382 12.1092C5.00646 11.5462 5.28178 10.6989 5.98269 10.5123L7.55179 10.0945C8.00922 9.97274 8.31859 9.54692 8.29306 9.07425L8.20549 7.45285C8.16637 6.72859 8.88716 6.2049 9.56389 6.46591L11.0789 7.05024C11.5205 7.22058 12.0211 7.05794 12.2783 6.66053L13.1605 5.29732Z" fill="#FF6934"/>
<path d="M9.66317 16V12.088H12.1292V12.832H10.5452V13.738H11.9012V14.482H10.5452V16H9.66317ZM12.6969 16.072C12.5449 16.072 12.4169 16.02 12.3129 15.916C12.2129 15.808 12.1629 15.676 12.1629 15.52C12.1629 15.36 12.2129 15.228 12.3129 15.124C12.4169 15.016 12.5449 14.962 12.6969 14.962C12.8489 14.962 12.9749 15.016 13.0749 15.124C13.1789 15.228 13.2309 15.36 13.2309 15.52C13.2309 15.676 13.1789 15.808 13.0749 15.916C12.9749 16.02 12.8489 16.072 12.6969 16.072ZM16.8909 16.072C16.5629 16.072 16.2609 15.996 15.9849 15.844C15.7089 15.692 15.4869 15.468 15.3189 15.172C15.1549 14.872 15.0729 14.504 15.0729 14.068C15.0729 13.636 15.1569 13.268 15.3249 12.964C15.4969 12.656 15.7229 12.422 16.0029 12.262C16.2869 12.098 16.5929 12.016 16.9209 12.016C17.1729 12.016 17.3989 12.068 17.5989 12.172C17.7989 12.272 17.9649 12.39 18.0969 12.526L17.6289 13.09C17.5289 12.998 17.4229 12.924 17.3109 12.868C17.2029 12.808 17.0789 12.778 16.9389 12.778C16.7629 12.778 16.6009 12.828 16.4529 12.928C16.3089 13.028 16.1929 13.172 16.1049 13.36C16.0209 13.548 15.9789 13.774 15.9789 14.038C15.9789 14.438 16.0649 14.75 16.2369 14.974C16.4089 15.198 16.6389 15.31 16.9269 15.31C17.0869 15.31 17.2289 15.274 17.3529 15.202C17.4809 15.13 17.5929 15.044 17.6889 14.944L18.1569 15.496C17.8289 15.88 17.4069 16.072 16.8909 16.072Z" fill="white"/>
</svg>
