<svg width="31" height="29" viewBox="0 0 31 29" fill="none" xmlns="http://www.w3.org/2000/svg">
<path d="M22.1124 25.9582V18.035H24.7533V28.5995H1V18.035H3.64091V25.9582H22.1124Z" fill="#BCBBBC"/>
<path d="M0 9.8822L5.36622 21.9472L7.77921 20.874L2.41299 8.80896L0 9.8822ZM27.0279 10.8132L24.7267 9.51754L18.2485 21.0239L20.5497 22.3195L27.0279 10.8132ZM18.6586 7.36692L15.061 20.072L17.6021 20.7915L21.1996 8.08643L18.6586 7.36692ZM11.9468 6.72683L11.7177 19.9294L14.3582 19.9753L14.5873 6.77264L11.9468 6.72683ZM5.59851 7.67911L8.36854 20.5899L10.9507 20.0359L8.1807 7.12507L5.59851 7.67911Z" fill="#F48023"/>
</svg>
