<svg width="28" height="28" viewBox="0 0 28 28" fill="none" xmlns="http://www.w3.org/2000/svg">
<path fill-rule="evenodd" clip-rule="evenodd" d="M14 1.95349C7.3469 1.95349 1.95349 7.3469 1.95349 14C1.95349 20.6531 7.3469 26.0465 14 26.0465C20.6531 26.0465 26.0465 20.6531 26.0465 14C26.0465 7.3469 20.6531 1.95349 14 1.95349ZM0 14C0 6.26801 6.26801 0 14 0C21.732 0 28 6.26801 28 14C28 21.732 21.732 28 14 28C6.26801 28 0 21.732 0 14Z" fill="#493C35"/>
<path fill-rule="evenodd" clip-rule="evenodd" d="M18.5976 9.40229C18.979 9.78374 18.979 10.4022 18.5976 10.7836L10.7836 18.5976C10.4022 18.979 9.78374 18.979 9.40229 18.5976C9.02085 18.2161 9.02085 17.5977 9.40229 17.2162L17.2162 9.40229C17.5977 9.02085 18.2161 9.02085 18.5976 9.40229Z" fill="#493C35"/>
<path fill-rule="evenodd" clip-rule="evenodd" d="M9.40229 9.40229C9.78374 9.02085 10.4022 9.02085 10.7836 9.40229L18.5976 17.2162C18.979 17.5977 18.979 18.2161 18.5976 18.5976C18.2161 18.979 17.5977 18.979 17.2162 18.5976L9.40229 10.7836C9.02085 10.4022 9.02085 9.78374 9.40229 9.40229Z" fill="#493C35"/>
</svg>
