<svg width="13" height="14" viewBox="0 0 13 14" fill="none" xmlns="http://www.w3.org/2000/svg">
<path d="M10.2917 2.125H2.70833C2.11002 2.125 1.625 2.61002 1.625 3.20833V10.7917C1.625 11.39 2.11002 11.875 2.70833 11.875H10.2917C10.89 11.875 11.375 11.39 11.375 10.7917V3.20833C11.375 2.61002 10.89 2.125 10.2917 2.125Z" stroke="white" stroke-linecap="round" stroke-linejoin="round"/>
<path d="M4.60425 5.91669C5.05298 5.91669 5.41675 5.55292 5.41675 5.10419C5.41675 4.65546 5.05298 4.29169 4.60425 4.29169C4.15552 4.29169 3.79175 4.65546 3.79175 5.10419C3.79175 5.55292 4.15552 5.91669 4.60425 5.91669Z" stroke="white" stroke-width="2" stroke-linecap="round" stroke-linejoin="round"/>
<path d="M11.3749 8.62502L8.66659 5.91669L2.70825 11.875" stroke="white" stroke-width="2" stroke-linecap="round" stroke-linejoin="round"/>
</svg>
