<svg width="28" height="28" viewBox="0 0 28 28" fill="none" xmlns="http://www.w3.org/2000/svg">
<rect width="28" height="28" rx="6" fill="white"/>
<path d="M13.1605 5.29732C13.5545 4.68838 14.4455 4.68838 14.8395 5.29732L15.7217 6.66053C15.9789 7.05794 16.4795 7.22058 16.9211 7.05024L18.4361 6.46591C19.1128 6.2049 19.8336 6.72859 19.7945 7.45285L19.7069 9.07425C19.6814 9.54692 19.9908 9.97274 20.4482 10.0945L22.0173 10.5123C22.7182 10.6989 22.9935 11.5462 22.5362 12.1092L21.5123 13.3694C21.2138 13.7368 21.2138 14.2632 21.5123 14.6306L22.5362 15.8908C22.9935 16.4538 22.7182 17.3011 22.0173 17.4877L20.4482 17.9055C19.9908 18.0273 19.6814 18.4531 19.7069 18.9257L19.7945 20.5471C19.8336 21.2714 19.1128 21.7951 18.4361 21.5341L16.9211 20.9498C16.4795 20.7794 15.9789 20.9421 15.7217 21.3395L14.8395 22.7027C14.4455 23.3116 13.5545 23.3116 13.1605 22.7027L12.2783 21.3395C12.0211 20.9421 11.5205 20.7794 11.0789 20.9498L9.56389 21.5341C8.88716 21.7951 8.16637 21.2714 8.20549 20.5471L8.29306 18.9257C8.31859 18.4531 8.00922 18.0273 7.55179 17.9055L5.98269 17.4877C5.28178 17.3011 5.00646 16.4538 5.46383 15.8908L6.48771 14.6306C6.78619 14.2632 6.78619 13.7368 6.48771 13.3694L5.46382 12.1092C5.00646 11.5462 5.28178 10.6989 5.98269 10.5123L7.55179 10.0945C8.00922 9.97274 8.31859 9.54692 8.29306 9.07425L8.20549 7.45285C8.16637 6.72858 8.88716 6.2049 9.56389 6.46591L11.0789 7.05024C11.5205 7.22058 12.0211 7.05794 12.2783 6.66053L13.1605 5.29732Z" fill="#0ECC8D"/>
<path d="M10.8643 16V12.088H11.9683C12.3683 12.088 12.7143 12.156 13.0063 12.292C13.2983 12.428 13.5243 12.64 13.6843 12.928C13.8483 13.212 13.9303 13.578 13.9303 14.026C13.9303 14.474 13.8503 14.844 13.6903 15.136C13.5303 15.428 13.3063 15.646 13.0183 15.79C12.7343 15.93 12.4003 16 12.0163 16H10.8643ZM11.7463 15.286H11.9143C12.1383 15.286 12.3323 15.246 12.4963 15.166C12.6643 15.086 12.7943 14.954 12.8863 14.77C12.9783 14.586 13.0243 14.338 13.0243 14.026C13.0243 13.714 12.9783 13.47 12.8863 13.294C12.7943 13.114 12.6643 12.988 12.4963 12.916C12.3323 12.84 12.1383 12.802 11.9143 12.802H11.7463V15.286ZM16.3049 16.072C15.9769 16.072 15.6749 15.996 15.3989 15.844C15.1229 15.692 14.9009 15.468 14.7329 15.172C14.5689 14.872 14.4869 14.504 14.4869 14.068C14.4869 13.636 14.5709 13.268 14.7389 12.964C14.9109 12.656 15.1369 12.422 15.4169 12.262C15.7009 12.098 16.0069 12.016 16.3349 12.016C16.5869 12.016 16.8129 12.068 17.0129 12.172C17.2129 12.272 17.3789 12.39 17.5109 12.526L17.0429 13.09C16.9429 12.998 16.8369 12.924 16.7249 12.868C16.6169 12.808 16.4929 12.778 16.3529 12.778C16.1769 12.778 16.0149 12.828 15.8669 12.928C15.7229 13.028 15.6069 13.172 15.5189 13.36C15.4349 13.548 15.3929 13.774 15.3929 14.038C15.3929 14.438 15.4789 14.75 15.6509 14.974C15.8229 15.198 16.0529 15.31 16.3409 15.31C16.5009 15.31 16.6429 15.274 16.7669 15.202C16.8949 15.13 17.0069 15.044 17.1029 14.944L17.5709 15.496C17.2429 15.88 16.8209 16.072 16.3049 16.072Z" fill="white"/>
</svg>
