<svg width="32" height="32" viewBox="0 0 32 32" fill="none" xmlns="http://www.w3.org/2000/svg">
<rect width="32" height="32" rx="4" fill="white"/>
<path d="M23.7229 11.0002C22.5947 11.0002 21.6717 11.8622 21.5076 12.983H18.1229V11.0002H13.6102V12.983H10.4718C10.2872 11.8623 9.36419 11.0002 8.25644 11.0002C7.00518 11.0002 6 12.0563 6 13.371C6 14.6856 7.00515 15.7417 8.25644 15.7417C9.20009 15.7417 10.0001 15.1383 10.3487 14.2763H11.6411C9.44616 15.6555 8 18.5 8.76918 22H10C9.5 18.5 11.0463 15.5906 13.6103 14.7501V15.7415H18.1231V14.7501C20.6871 15.5906 23 18.5 22 22H23.2308C24 18 22.2871 15.6552 20.1128 14.2759H21.6513C21.9999 15.1379 22.7999 15.7414 23.7436 15.7414C24.9948 15.7414 26 14.6853 26 13.3706C25.9999 12.0561 24.9742 11.0002 23.7229 11.0002Z" fill="#5D95E8"/>
</svg>
