<svg width="28" height="28" viewBox="0 0 28 28" fill="none" xmlns="http://www.w3.org/2000/svg">
<rect width="28" height="28" rx="6" fill="white"/>
<path d="M13.1605 5.29732C13.5545 4.68838 14.4455 4.68838 14.8395 5.29732L15.7217 6.66053C15.9789 7.05794 16.4795 7.22058 16.9211 7.05024L18.4361 6.46591C19.1128 6.2049 19.8336 6.72859 19.7945 7.45285L19.7069 9.07425C19.6814 9.54692 19.9908 9.97274 20.4482 10.0945L22.0173 10.5123C22.7182 10.6989 22.9935 11.5462 22.5362 12.1092L21.5123 13.3694C21.2138 13.7368 21.2138 14.2632 21.5123 14.6306L22.5362 15.8908C22.9935 16.4538 22.7182 17.3011 22.0173 17.4877L20.4482 17.9055C19.9908 18.0273 19.6814 18.4531 19.7069 18.9257L19.7945 20.5471C19.8336 21.2714 19.1128 21.7951 18.4361 21.5341L16.9211 20.9498C16.4795 20.7794 15.9789 20.9421 15.7217 21.3395L14.8395 22.7027C14.4455 23.3116 13.5545 23.3116 13.1605 22.7027L12.2783 21.3395C12.0211 20.9421 11.5205 20.7794 11.0789 20.9498L9.56389 21.5341C8.88716 21.7951 8.16637 21.2714 8.20549 20.5471L8.29306 18.9257C8.31859 18.4531 8.00922 18.0273 7.55179 17.9055L5.98269 17.4877C5.28178 17.3011 5.00646 16.4538 5.46383 15.8908L6.48771 14.6306C6.78619 14.2632 6.78619 13.7368 6.48771 13.3694L5.46382 12.1092C5.00646 11.5462 5.28178 10.6989 5.98269 10.5123L7.55179 10.0945C8.00922 9.97274 8.31859 9.54692 8.29306 9.07425L8.20549 7.45285C8.16637 6.72858 8.88716 6.2049 9.56389 6.46591L11.0789 7.05024C11.5205 7.22058 12.0211 7.05794 12.2783 6.66053L13.1605 5.29732Z" fill="#EEA956"/>
<path d="M10.19 16.072C9.834 16.072 9.51 15.996 9.218 15.844C8.93 15.692 8.7 15.468 8.528 15.172C8.36 14.872 8.276 14.504 8.276 14.068C8.276 13.636 8.362 13.268 8.534 12.964C8.71 12.656 8.942 12.422 9.23 12.262C9.518 12.098 9.836 12.016 10.184 12.016C10.468 12.016 10.712 12.068 10.916 12.172C11.12 12.276 11.286 12.394 11.414 12.526L10.952 13.09C10.852 13.002 10.746 12.928 10.634 12.868C10.522 12.808 10.382 12.778 10.214 12.778C9.91 12.778 9.662 12.89 9.47 13.114C9.278 13.338 9.182 13.646 9.182 14.038C9.182 14.438 9.274 14.75 9.458 14.974C9.642 15.198 9.916 15.31 10.28 15.31C10.36 15.31 10.438 15.3 10.514 15.28C10.59 15.26 10.652 15.23 10.7 15.19V14.518H10.052V13.798H11.48V15.598C11.344 15.73 11.162 15.842 10.934 15.934C10.71 16.026 10.462 16.072 10.19 16.072ZM12.2882 16V12.088H13.3922C13.7922 12.088 14.1382 12.156 14.4302 12.292C14.7222 12.428 14.9482 12.64 15.1082 12.928C15.2722 13.212 15.3542 13.578 15.3542 14.026C15.3542 14.474 15.2742 14.844 15.1142 15.136C14.9542 15.428 14.7302 15.646 14.4422 15.79C14.1582 15.93 13.8242 16 13.4402 16H12.2882ZM13.1702 15.286H13.3382C13.5622 15.286 13.7562 15.246 13.9202 15.166C14.0882 15.086 14.2182 14.954 14.3102 14.77C14.4022 14.586 14.4482 14.338 14.4482 14.026C14.4482 13.714 14.4022 13.47 14.3102 13.294C14.2182 13.114 14.0882 12.988 13.9202 12.916C13.7562 12.84 13.5622 12.802 13.3382 12.802H13.1702V15.286ZM17.7288 16.072C17.4008 16.072 17.0988 15.996 16.8228 15.844C16.5468 15.692 16.3248 15.468 16.1568 15.172C15.9928 14.872 15.9108 14.504 15.9108 14.068C15.9108 13.636 15.9948 13.268 16.1628 12.964C16.3348 12.656 16.5608 12.422 16.8408 12.262C17.1248 12.098 17.4308 12.016 17.7588 12.016C18.0108 12.016 18.2368 12.068 18.4368 12.172C18.6368 12.272 18.8028 12.39 18.9348 12.526L18.4668 13.09C18.3668 12.998 18.2608 12.924 18.1488 12.868C18.0408 12.808 17.9168 12.778 17.7768 12.778C17.6008 12.778 17.4388 12.828 17.2908 12.928C17.1468 13.028 17.0308 13.172 16.9428 13.36C16.8588 13.548 16.8168 13.774 16.8168 14.038C16.8168 14.438 16.9028 14.75 17.0748 14.974C17.2468 15.198 17.4768 15.31 17.7648 15.31C17.9248 15.31 18.0668 15.274 18.1908 15.202C18.3188 15.13 18.4308 15.044 18.5268 14.944L18.9948 15.496C18.6668 15.88 18.2448 16.072 17.7288 16.072Z" fill="white"/>
</svg>
