<svg width="32" height="32" viewBox="0 0 32 32" fill="none" xmlns="http://www.w3.org/2000/svg">
<rect width="32" height="32" rx="4" fill="white"/>
<path d="M9.36334 19.3395C9.43117 19.3074 9.4929 19.2642 9.54617 19.2114L18.3198 10.4987C18.6562 10.1666 18.8454 9.71502 18.8456 9.24391C18.8457 8.77291 18.6566 8.3213 18.3203 7.98912C17.9889 7.67181 17.5453 7.49618 17.0849 7.50006C16.6245 7.50395 16.1839 7.68713 15.858 8.00992L7.06241 16.7449C7.00928 16.7976 6.96561 16.8591 6.93329 16.9264L6.79151 17.2235L6.00325 20.145C5.99437 20.1783 6.00398 20.2138 6.02858 20.2382C6.05303 20.2626 6.08885 20.2722 6.12233 20.2633L9.06431 19.4806L9.36334 19.3395ZM8.11026 19.1432C8.0893 19.164 8.06484 19.1812 8.03805 19.1941L7.91941 19.2496L6.75339 19.56L6.6889 19.5773L6.70637 19.5133L7.01876 18.3554L7.07466 18.2377V18.2375C7.08762 18.2108 7.10494 18.1866 7.1259 18.1657L7.15749 18.1343L8.14185 19.1118L8.11026 19.1432ZM16.355 9.2129L17.1305 9.983L9.28709 17.772L8.5115 17.0019L16.355 9.2129Z" fill="#EA942C"/>
<path d="M25.4401 22.2988C24.9695 22.1736 24.4972 22.0184 24.0069 21.8573C22.9403 21.5069 21.8372 21.1446 20.5918 21.0471C18.7679 20.9044 15.9789 21.0697 14.1664 21.7697H14.1666C14.0215 21.8295 13.8846 21.8986 13.7574 21.9761L13.737 21.9877C13.5647 21.9203 13.4 21.8426 13.2273 21.7609C12.7527 21.5118 12.2155 21.3285 11.644 21.2209C10.2104 20.9799 8.44646 21.1304 7.26725 21.9114C7.07044 22.0433 6.9737 22.2332 7.00618 22.4233C7.03882 22.6135 7.19693 22.7815 7.43258 22.8766L7.47114 22.8922C7.63127 22.956 7.81596 22.9822 7.99864 22.9671C8.18132 22.952 8.35241 22.8965 8.48743 22.8083C9.20264 22.3519 10.3437 22.2769 11.2373 22.4271H11.2372C11.6041 22.5029 11.9476 22.6266 12.2503 22.7914C12.4991 22.9133 12.7578 23.0246 13.0253 23.125C13.0297 23.1266 13.0335 23.128 13.0365 23.1292C13.1685 23.2113 13.3289 23.2672 13.5015 23.2915C13.6742 23.3158 13.8526 23.3073 14.0191 23.2671L14.0834 23.2562H14.0835C14.3757 23.1942 14.6434 23.0852 14.866 22.938C14.9143 22.9103 14.9865 22.8689 15.0165 22.8549C16.4153 22.3171 18.8317 22.157 20.3983 22.2794C21.3571 22.3545 22.2841 22.6591 23.2656 22.9815C23.7727 23.1481 24.2911 23.3184 24.8306 23.4616H24.8304C25.0581 23.5217 25.3114 23.5109 25.5271 23.4318C25.743 23.3527 25.9013 23.2128 25.9628 23.0468L25.9723 23.0209C26.0259 22.8754 26.0012 22.721 25.9029 22.5876C25.8045 22.4543 25.6396 22.3514 25.4399 22.2988L25.4401 22.2988Z" fill="#EA942C"/>
</svg>
