<svg width="15" height="15" viewBox="0 0 15 15" fill="none" xmlns="http://www.w3.org/2000/svg">
<path fill-rule="evenodd" clip-rule="evenodd" d="M6.73901 5.98947H2.21133C2.03896 5.98791 1.86827 6.02236 1.71087 6.09047C1.55346 6.15857 1.41305 6.25875 1.29917 6.38417C1.1853 6.50959 1.10063 6.65732 1.05094 6.8173C1.00125 6.97728 0.987704 7.14576 1.01122 7.31127C1.03558 7.6186 1.18075 7.90513 1.41675 8.11174C1.65276 8.31835 1.96159 8.42926 2.27951 8.42158H2.49772C2.35801 8.425 2.22037 8.45508 2.09266 8.51008C1.96495 8.56509 1.84968 8.64394 1.75343 8.74215C1.65717 8.84035 1.58183 8.95597 1.5317 9.0824C1.48157 9.20884 1.45763 9.34361 1.46126 9.47901C1.46628 9.74592 1.57153 10.0019 1.75731 10.199C1.94308 10.3961 2.19663 10.5208 2.47044 10.5497C2.34003 10.6488 2.23431 10.7752 2.16113 10.9193C2.08794 11.0635 2.04917 11.2217 2.04768 11.3824C2.04836 11.6303 2.13673 11.8706 2.29804 12.063C2.45935 12.2554 2.68386 12.3884 2.93412 12.4398C2.8025 12.6642 2.75892 12.927 2.81138 13.18C2.88374 13.4217 3.03682 13.6333 3.2466 13.7816C3.45638 13.93 3.71102 14.0066 3.97058 13.9996H7.09359C7.50272 13.9996 7.91048 13.9493 8.30734 13.8542L10.2439 13.2329H12.835C14.1988 13.2329 14.567 7.09978 12.835 7.09978C12.5852 7.11312 12.3348 7.11312 12.085 7.09978C12.0168 7.09978 11.8804 6.84864 11.5394 6.49175C11.0349 5.96304 10.4757 5.28892 10.0802 4.91882C9.11219 4.08575 8.3242 3.07491 7.76183 1.94478C7.65352 1.69537 7.50634 1.46355 7.32543 1.25744C7.09829 1.07231 6.80523 0.981039 6.50934 1.00329C6.21346 1.02554 5.93842 1.15953 5.74347 1.3764C5.60214 1.52455 5.48695 1.69425 5.40253 1.87869C5.34735 2.00632 5.30621 2.13923 5.27979 2.27522C5.2432 2.64788 5.27553 3.02388 5.37525 3.38553C5.46253 3.76621 5.58663 4.13764 5.74347 4.49584C5.99985 4.96244 6.30261 5.40524 6.64355 5.81764C6.68563 5.84277 6.7189 5.87962 6.73901 5.92338" fill="#808080"/>
<path d="M6.73901 5.98947H2.21133C2.03896 5.98791 1.86827 6.02236 1.71087 6.09047C1.55346 6.15857 1.41305 6.25875 1.29917 6.38417C1.1853 6.50959 1.10063 6.65732 1.05094 6.8173C1.00125 6.97728 0.987704 7.14576 1.01122 7.31127C1.03558 7.6186 1.18075 7.90513 1.41675 8.11174C1.65276 8.31835 1.96159 8.42926 2.27951 8.42158H2.49772C2.35801 8.425 2.22037 8.45508 2.09266 8.51008C1.96495 8.56509 1.84968 8.64394 1.75343 8.74215C1.65717 8.84035 1.58183 8.95597 1.5317 9.0824C1.48157 9.20884 1.45763 9.34361 1.46126 9.47901C1.46628 9.74592 1.57153 10.0019 1.75731 10.199C1.94308 10.3961 2.19663 10.5208 2.47044 10.5497C2.34003 10.6488 2.23431 10.7752 2.16113 10.9193C2.08794 11.0635 2.04917 11.2217 2.04768 11.3824C2.04836 11.6303 2.13673 11.8706 2.29804 12.063C2.45935 12.2554 2.68386 12.3884 2.93412 12.4398C2.8025 12.6642 2.75892 12.927 2.81138 13.18C2.88374 13.4217 3.03682 13.6333 3.2466 13.7816C3.45638 13.93 3.71102 14.0066 3.97058 13.9996H7.09359C7.50272 13.9996 7.91048 13.9493 8.30734 13.8542L10.2439 13.2329H12.835C14.1988 13.2329 14.567 7.09978 12.835 7.09978C12.5852 7.11312 12.3348 7.11312 12.085 7.09978C12.0168 7.09978 11.8804 6.84864 11.5394 6.49175C11.0349 5.96304 10.4757 5.28892 10.0802 4.91882C9.11219 4.08575 8.3242 3.07491 7.76183 1.94478C7.65352 1.69537 7.50634 1.46355 7.32543 1.25744C7.09829 1.07231 6.80523 0.981039 6.50934 1.00329C6.21346 1.02554 5.93842 1.15953 5.74347 1.3764C5.60214 1.52455 5.48695 1.69425 5.40253 1.87869C5.34735 2.00632 5.30621 2.13923 5.27979 2.27522C5.2432 2.64788 5.27553 3.02388 5.37525 3.38553C5.46253 3.76621 5.58663 4.13764 5.74347 4.49584C5.99985 4.96244 6.30261 5.40524 6.64355 5.81764C6.68563 5.84277 6.7189 5.87962 6.73901 5.92338" stroke="#808080" stroke-linecap="round" stroke-linejoin="round"/>
</svg>
