<svg width="15" height="20" viewBox="0 0 15 20" fill="none" xmlns="http://www.w3.org/2000/svg">
<path d="M10.7299 1.71012L8.65987 0.870124C7.84987 0.540124 6.91987 0.930124 6.58987 1.75012L5.95987 3.29012C5.62987 4.10012 6.01987 5.03012 6.83987 5.37012L9.12987 6.30012C8.88987 7.45012 8.51987 8.80012 7.93987 10.2601C7.28987 11.9101 6.53987 13.2701 5.85987 14.3601L3.56987 13.4301C2.74987 13.1001 1.81987 13.4901 1.48987 14.3101L0.85987 15.8501C0.52987 16.6701 0.91987 17.6001 1.73987 17.9301L3.80987 18.7701L3.84987 18.7901C6.07987 19.6901 8.64987 18.8201 9.80987 16.7201C10.5899 15.3101 11.3599 13.7301 12.0699 11.9601C12.7099 10.3601 13.2099 8.83012 13.5899 7.41012C14.2199 5.08012 12.9999 2.65012 10.7699 1.74012L10.7299 1.71012Z" stroke="#022433" stroke-width="1.2" stroke-miterlimit="10" stroke-linecap="round" stroke-linejoin="round"/>
</svg>
