<svg width="16" height="9" viewBox="0 0 16 9" fill="none" xmlns="http://www.w3.org/2000/svg">
<path d="M4.63452 5.72519L7.42545 7.99853C7.85567 8.34896 8.48894 8.28211 8.83651 7.84958L14.6345 0.634277" stroke="#75B4FF" stroke-linecap="round"/>
<path fill-rule="evenodd" clip-rule="evenodd" d="M7.46709 4.39212L10.3925 0.816634C10.5673 0.602912 10.5358 0.2879 10.3221 0.113036C10.1084 -0.0618274 9.79339 -0.0303263 9.61853 0.183396L6.69884 3.75191L7.46709 4.39212ZM4.29195 8.25471L3.5077 7.60117C3.33912 7.69834 3.1224 7.69131 2.95788 7.56793L0.80003 5.94954C0.579116 5.78385 0.265715 5.82862 0.100029 6.04954C-0.0656557 6.27045 -0.0208846 6.58385 0.200029 6.74954L2.35788 8.36793C2.95047 8.81237 3.76884 8.75355 4.29195 8.25471Z" fill="#75B4FF"/>
</svg>
